<svg width="800" height="600" xmlns="http://www.w3.org/2000/svg">
  <!-- Background -->
  <rect width="800" height="600" fill="#f8f9fa"/>
  
  <!-- Title -->
  <text x="400" y="30" text-anchor="middle" font-family="Arial, sans-serif" font-size="24" font-weight="bold" fill="#1f2937">
    AI 블로그 개발 아키텍처
  </text>
  
  <!-- GPT-5 Codex -->
  <rect x="50" y="80" width="150" height="80" rx="10" fill="#e1f5fe" stroke="#0288d1" stroke-width="2"/>
  <text x="125" y="110" text-anchor="middle" font-family="Arial, sans-serif" font-size="14" font-weight="bold" fill="#0288d1">GPT-5 Codex</text>
  <text x="125" y="130" text-anchor="middle" font-family="Arial, sans-serif" font-size="12" fill="#0288d1">프롬프트 설계</text>
  
  <!-- Cursor AI -->
  <rect x="300" y="80" width="150" height="80" rx="10" fill="#f3e5f5" stroke="#7b1fa2" stroke-width="2"/>
  <text x="375" y="110" text-anchor="middle" font-family="Arial, sans-serif" font-size="14" font-weight="bold" fill="#7b1fa2">Cursor AI</text>
  <text x="375" y="130" text-anchor="middle" font-family="Arial, sans-serif" font-size="12" fill="#7b1fa2">코드 생성</text>
  
  <!-- Jekyll -->
  <rect x="550" y="80" width="150" height="80" rx="10" fill="#e8f5e8" stroke="#388e3c" stroke-width="2"/>
  <text x="625" y="110" text-anchor="middle" font-family="Arial, sans-serif" font-size="14" font-weight="bold" fill="#388e3c">Jekyll</text>
  <text x="625" y="130" text-anchor="middle" font-family="Arial, sans-serif" font-size="12" fill="#388e3c">정적 사이트 생성</text>
  
  <!-- GitHub Pages -->
  <rect x="300" y="250" width="150" height="80" rx="10" fill="#fff3e0" stroke="#f57c00" stroke-width="2"/>
  <text x="375" y="280" text-anchor="middle" font-family="Arial, sans-serif" font-size="14" font-weight="bold" fill="#f57c00">GitHub Pages</text>
  <text x="375" y="300" text-anchor="middle" font-family="Arial, sans-serif" font-size="12" fill="#f57c00">자동 배포</text>
  
  <!-- Arrows -->
  <path d="M 200 120 L 300 120" stroke="#666" stroke-width="2" marker-end="url(#arrowhead)"/>
  <path d="M 450 120 L 550 120" stroke="#666" stroke-width="2" marker-end="url(#arrowhead)"/>
  <path d="M 625 160 L 625 200 L 375 200 L 375 250" stroke="#666" stroke-width="2" marker-end="url(#arrowhead)"/>
  
  <!-- Input sources -->
  <rect x="50" y="400" width="100" height="60" rx="8" fill="#f0f0f0" stroke="#666" stroke-width="1"/>
  <text x="100" y="420" text-anchor="middle" font-family="Arial, sans-serif" font-size="12" fill="#666">Markdown</text>
  <text x="100" y="435" text-anchor="middle" font-family="Arial, sans-serif" font-size="12" fill="#666">콘텐츠</text>
  
  <rect x="200" y="400" width="100" height="60" rx="8" fill="#f0f0f0" stroke="#666" stroke-width="1"/>
  <text x="250" y="420" text-anchor="middle" font-family="Arial, sans-serif" font-size="12" fill="#666">CSS/JS</text>
  <text x="250" y="435" text-anchor="middle" font-family="Arial, sans-serif" font-size="12" fill="#666">스타일링</text>
  
  <rect x="350" y="400" width="100" height="60" rx="8" fill="#f0f0f0" stroke="#666" stroke-width="1"/>
  <text x="400" y="420" text-anchor="middle" font-family="Arial, sans-serif" font-size="12" fill="#666">HTML</text>
  <text x="400" y="435" text-anchor="middle" font-family="Arial, sans-serif" font-size="12" fill="#666">레이아웃</text>
  
  <!-- Arrows from inputs to Jekyll -->
  <path d="M 100 400 L 100 350 L 625 350 L 625 160" stroke="#999" stroke-width="1" stroke-dasharray="5,5"/>
  <path d="M 250 400 L 250 360 L 625 360 L 625 160" stroke="#999" stroke-width="1" stroke-dasharray="5,5"/>
  <path d="M 400 400 L 400 370 L 625 370 L 625 160" stroke="#999" stroke-width="1" stroke-dasharray="5,5"/>
  
  <!-- Development tools -->
  <rect x="550" y="400" width="120" height="60" rx="8" fill="#e3f2fd" stroke="#1976d2" stroke-width="1"/>
  <text x="610" y="420" text-anchor="middle" font-family="Arial, sans-serif" font-size="12" fill="#1976d2">로컬 개발</text>
  <text x="610" y="435" text-anchor="middle" font-family="Arial, sans-serif" font-size="10" fill="#1976d2">bundle exec jekyll serve</text>
  
  <rect x="550" y="480" width="120" height="60" rx="8" fill="#fce4ec" stroke="#c2185b" stroke-width="1"/>
  <text x="610" y="500" text-anchor="middle" font-family="Arial, sans-serif" font-size="12" fill="#c2185b">Git Push</text>
  <text x="610" y="515" text-anchor="middle" font-family="Arial, sans-serif" font-size="10" fill="#c2185b">자동 배포 트리거</text>
  
  <!-- Arrows from dev tools -->
  <path d="M 610 400 L 610 350 L 625 350 L 625 160" stroke="#1976d2" stroke-width="1" stroke-dasharray="5,5"/>
  <path d="M 610 480 L 610 420 L 375 420 L 375 250" stroke="#c2185b" stroke-width="1" stroke-dasharray="5,5"/>
  
  <!-- Arrow marker definition -->
  <defs>
    <marker id="arrowhead" markerWidth="10" markerHeight="7" refX="9" refY="3.5" orient="auto">
      <polygon points="0 0, 10 3.5, 0 7" fill="#666"/>
    </marker>
  </defs>
</svg>
