<svg width="900" height="500" xmlns="http://www.w3.org/2000/svg">
  <!-- Background -->
  <rect width="900" height="500" fill="#f8f9fa"/>
  
  <!-- Title -->
  <text x="450" y="30" text-anchor="middle" font-family="Arial, sans-serif" font-size="24" font-weight="bold" fill="#1f2937">
    AI 개발 프로세스 시퀀스
  </text>
  
  <!-- Participants -->
  <rect x="50" y="80" width="100" height="300" rx="10" fill="#e3f2fd" stroke="#1976d2" stroke-width="2"/>
  <text x="100" y="110" text-anchor="middle" font-family="Arial, sans-serif" font-size="14" font-weight="bold" fill="#1976d2">사용자</text>
  
  <rect x="200" y="80" width="100" height="300" rx="10" fill="#e1f5fe" stroke="#0288d1" stroke-width="2"/>
  <text x="250" y="110" text-anchor="middle" font-family="Arial, sans-serif" font-size="14" font-weight="bold" fill="#0288d1">GPT-5</text>
  <text x="250" y="130" text-anchor="middle" font-family="Arial, sans-serif" font-size="12" fill="#0288d1">Codex</text>
  
  <rect x="350" y="80" width="100" height="300" rx="10" fill="#f3e5f5" stroke="#7b1fa2" stroke-width="2"/>
  <text x="400" y="110" text-anchor="middle" font-family="Arial, sans-serif" font-size="14" font-weight="bold" fill="#7b1fa2">Cursor</text>
  <text x="400" y="130" text-anchor="middle" font-family="Arial, sans-serif" font-size="12" fill="#7b1fa2">AI</text>
  
  <rect x="500" y="80" width="100" height="300" rx="10" fill="#e8f5e8" stroke="#388e3c" stroke-width="2"/>
  <text x="550" y="110" text-anchor="middle" font-family="Arial, sans-serif" font-size="14" font-weight="bold" fill="#388e3c">Jekyll</text>
  
  <rect x="650" y="80" width="100" height="300" rx="10" fill="#fff3e0" stroke="#f57c00" stroke-width="2"/>
  <text x="700" y="110" text-anchor="middle" font-family="Arial, sans-serif" font-size="14" font-weight="bold" fill="#f57c00">GitHub</text>
  <text x="700" y="130" text-anchor="middle" font-family="Arial, sans-serif" font-size="12" fill="#f57c00">Pages</text>
  
  <!-- Lifelines -->
  <line x1="100" y1="80" x2="100" y2="380" stroke="#1976d2" stroke-width="2"/>
  <line x1="250" y1="80" x2="250" y2="380" stroke="#0288d1" stroke-width="2"/>
  <line x1="400" y1="80" x2="400" y2="380" stroke="#7b1fa2" stroke-width="2"/>
  <line x1="550" y1="80" x2="550" y2="380" stroke="#388e3c" stroke-width="2"/>
  <line x1="700" y1="80" x2="700" y2="380" stroke="#f57c00" stroke-width="2"/>
  
  <!-- Messages -->
  <!-- User to GPT-5 -->
  <path d="M 100 150 L 250 150" stroke="#333" stroke-width="2" marker-end="url(#arrowhead)"/>
  <text x="175" y="145" text-anchor="middle" font-family="Arial, sans-serif" font-size="12" fill="#333">프롬프트 작성</text>
  
  <!-- GPT-5 to Cursor AI -->
  <path d="M 250 180 L 400 180" stroke="#333" stroke-width="2" marker-end="url(#arrowhead)"/>
  <text x="325" y="175" text-anchor="middle" font-family="Arial, sans-serif" font-size="12" fill="#333">최적화된 프롬프트 전달</text>
  
  <!-- Cursor AI to Jekyll -->
  <path d="M 400 210 L 550 210" stroke="#333" stroke-width="2" marker-end="url(#arrowhead)"/>
  <text x="475" y="205" text-anchor="middle" font-family="Arial, sans-serif" font-size="12" fill="#333">코드 생성 및 적용</text>
  
  <!-- Jekyll to GitHub Pages -->
  <path d="M 550 240 L 700 240" stroke="#333" stroke-width="2" marker-end="url(#arrowhead)"/>
  <text x="625" y="235" text-anchor="middle" font-family="Arial, sans-serif" font-size="12" fill="#333">자동 배포</text>
  
  <!-- GitHub Pages to User -->
  <path d="M 700 270 L 100 270" stroke="#333" stroke-width="2" marker-end="url(#arrowhead)"/>
  <text x="400" y="265" text-anchor="middle" font-family="Arial, sans-serif" font-size="12" fill="#333">결과 확인</text>
  
  <!-- Return messages (dashed lines) -->
  <path d="M 250 300 L 100 300" stroke="#666" stroke-width="1" stroke-dasharray="5,5"/>
  <text x="175" y="295" text-anchor="middle" font-family="Arial, sans-serif" font-size="10" fill="#666">응답</text>
  
  <path d="M 400 320 L 250 320" stroke="#666" stroke-width="1" stroke-dasharray="5,5"/>
  <text x="325" y="315" text-anchor="middle" font-family="Arial, sans-serif" font-size="10" fill="#666">코드 생성</text>
  
  <path d="M 550 340 L 400 340" stroke="#666" stroke-width="1" stroke-dasharray="5,5"/>
  <text x="475" y="335" text-anchor="middle" font-family="Arial, sans-serif" font-size="10" fill="#666">사이트 생성</text>
  
  <path d="M 700 360 L 550 360" stroke="#666" stroke-width="1" stroke-dasharray="5,5"/>
  <text x="625" y="355" text-anchor="middle" font-family="Arial, sans-serif" font-size="10" fill="#666">배포 완료</text>
  
  <!-- Arrow marker definition -->
  <defs>
    <marker id="arrowhead" markerWidth="10" markerHeight="7" refX="9" refY="3.5" orient="auto">
      <polygon points="0 0, 10 3.5, 0 7" fill="#333"/>
    </marker>
  </defs>
</svg>
